<?xml version="1.0" encoding="UTF-8" standalone="no"?>
<svg
   width="34.142799"
   height="24.5236"
   viewBox="0 0 34.142799 24.5236"
   fill="none"
   version="1.1"
   id="svg15"
   sodipodi:docname="english.svg"
   inkscape:version="1.4.2 (f4327f4, 2025-05-13)"
   xmlns:inkscape="http://www.inkscape.org/namespaces/inkscape"
   xmlns:sodipodi="http://sodipodi.sourceforge.net/DTD/sodipodi-0.dtd"
   xmlns="http://www.w3.org/2000/svg"
   xmlns:svg="http://www.w3.org/2000/svg">
  <sodipodi:namedview
     id="namedview15"
     pagecolor="#ffffff"
     bordercolor="#000000"
     borderopacity="0.25"
     inkscape:showpageshadow="2"
     inkscape:pageopacity="0.0"
     inkscape:pagecheckerboard="0"
     inkscape:deskcolor="#d1d1d1"
     inkscape:zoom="15.666667"
     inkscape:cx="17.329787"
     inkscape:cy="16.56383"
     inkscape:window-width="1920"
     inkscape:window-height="1137"
     inkscape:window-x="1912"
     inkscape:window-y="-8"
     inkscape:window-maximized="1"
     inkscape:current-layer="g9" />
  <g
     filter="url(#filter0_d_454_1849)"
     id="g12"
     transform="translate(-15.1917,-11.9666)">
    <g
       clip-path="url(#clip0_454_1849)"
       id="g11">
      <rect
         x="16.134701"
         y="12.101"
         width="32.269402"
         height="24.202"
         fill="#e1e7fe"
         id="rect1" />
      <g
         clip-path="url(#clip1_454_1849)"
         id="g10">
        <mask
           id="mask0_454_1849"
           maskUnits="userSpaceOnUse"
           x="13"
           y="10"
           width="39"
           height="29">
          <path
             d="M 47.5077,10.0842 H 17.031 c -1.9802,0 -3.5854,1.6855 -3.5854,3.7647 v 20.7062 c 0,2.0792 1.6052,3.7648 3.5854,3.7648 h 30.4767 c 1.9802,0 3.5854,-1.6856 3.5854,-3.7648 V 13.8489 c 0,-2.0792 -1.6052,-3.7647 -3.5854,-3.7647 z"
             fill="#ffffff"
             id="path1" />
        </mask>
        <g
           mask="url(#mask0_454_1849)"
           id="g9">
          <path
             d="M 47.5077,10.0842 H 17.031 c -1.9802,0 -3.5854,1.6855 -3.5854,3.7647 v 20.7062 c 0,2.0792 1.6052,3.7648 3.5854,3.7648 h 30.4767 c 1.9802,0 3.5854,-1.6856 3.5854,-3.7648 V 13.8489 c 0,-2.0792 -1.6052,-3.7647 -3.5854,-3.7647 z"
             fill="#22438b"
             id="path2"
             sodipodi:nodetypes="sssssssss" />
          <path
             fill-rule="evenodd"
             clip-rule="evenodd"
             d="m 18.8238,11.9666 -3.6321,0.0489 0.0466,3.7158 30.4443,20.7589 3.6519,-0.0697 -0.0682,-3.6932 z"
             fill="#ffffff"
             id="path3"
             sodipodi:nodetypes="ccccccc" />
          <path
             fill-rule="evenodd"
             clip-rule="evenodd"
             d="m 17.031,11.9666 -1.7927,1.8823 32.2694,22.5886 1.7927,-1.8824 z"
             fill="#c7152a"
             id="path4" />
          <path
             fill-rule="evenodd"
             clip-rule="evenodd"
             d="m 45.7149,11.9666 h 3.5855 v 3.7647 c 0,0 -21.0647,13.9221 -30.4443,20.7589 -0.113,0.0828 -3.5819,0.0056 -3.5819,0.0056 l -0.2779,-3.5784 z"
             fill="#ffffff"
             id="path5" />
          <path
             fill-rule="evenodd"
             clip-rule="evenodd"
             d="M 47.5847,11.9138 49.3004,13.8489 17.031,36.4375 15.2383,34.5551 Z"
             fill="#c7152a"
             id="path6" />
          <path
             fill-rule="evenodd"
             clip-rule="evenodd"
             d="m 27.7875,11.9666 h 8.9637 v 7.5295 H 49.3004 V 28.908 H 36.7512 v 7.5295 H 27.7875 V 28.908 H 15.2383 v -9.4119 h 12.5492 z"
             fill="#ffffff"
             id="path7" />
          <path
             fill-rule="evenodd"
             clip-rule="evenodd"
             d="m 29.5802,11.9666 h 5.3783 v 9.4118 h 14.3419 v 5.6472 H 34.9585 v 9.4119 H 29.5802 V 27.0256 H 15.2383 v -5.6472 h 14.3419 z"
             fill="#c7152a"
             id="path8" />
          <path
             d="M 47.5077,11.0253 H 17.031 c -1.4851,0 -2.6891,1.2642 -2.6891,2.8236 v 20.7062 c 0,1.5594 1.204,2.8235 2.6891,2.8235 h 30.4767 c 1.4851,0 2.6891,-1.2641 2.6891,-2.8235 V 13.8489 c 0,-1.5594 -1.204,-2.8236 -2.6891,-2.8236 z"
             stroke="#000000"
             stroke-opacity="0.1"
             stroke-width="2.01683"
             id="path9" />
        </g>
      </g>
    </g>
  </g>
  <defs
     id="defs15">
    <filter
       id="filter0_d_454_1849"
       x="-5.72205e-06"
       y="3.3378601e-06"
       width="64.538696"
       height="56.471401"
       filterUnits="userSpaceOnUse"
       color-interpolation-filters="sRGB">
      <feFlood
         flood-opacity="0"
         result="BackgroundImageFix"
         id="feFlood12" />
      <feColorMatrix
         in="SourceAlpha"
         type="matrix"
         values="0 0 0 0 0 0 0 0 0 0 0 0 0 0 0 0 0 0 127 0"
         result="hardAlpha"
         id="feColorMatrix12" />
      <feOffset
         dy="4.03367"
         id="feOffset12" />
      <feGaussianBlur
         stdDeviation="8.06734"
         id="feGaussianBlur12" />
      <feColorMatrix
         type="matrix"
         values="0 0 0 0 0 0 0 0 0 0 0 0 0 0 0 0 0 0 0.06 0"
         id="feColorMatrix13" />
      <feBlend
         mode="normal"
         in2="BackgroundImageFix"
         result="effect1_dropShadow_454_1849"
         id="feBlend13" />
      <feBlend
         mode="normal"
         in="SourceGraphic"
         in2="effect1_dropShadow_454_1849"
         result="shape"
         id="feBlend14" />
    </filter>
    <clipPath
       id="clip0_454_1849">
      <rect
         x="16.134701"
         y="12.101"
         width="32.269402"
         height="24.202"
         rx="4.0336699"
         fill="#ffffff"
         id="rect14" />
    </clipPath>
    <clipPath
       id="clip1_454_1849">
      <rect
         width="37.647598"
         height="28.235701"
         fill="#ffffff"
         transform="translate(13.4456,10.0842)"
         id="rect15"
         x="0"
         y="0" />
    </clipPath>
  </defs>
</svg>
