<svg width="9" height="13" viewBox="0 0 9 13" fill="none" xmlns="http://www.w3.org/2000/svg">
<path d="M2.48979 12.6055C1.44046 12.6136 0.500498 11.9578 0.145852 10.9702C-0.208793 9.98261 0.0993026 8.87872 0.914137 8.21751C0.336188 7.74974 0.000401483 7.04598 0.000401483 6.30246C0.000401483 5.55894 0.336188 4.85518 0.914137 4.38741C0.0990418 3.72642 -0.209239 2.62245 0.145473 1.63479C0.500186 0.647125 1.4404 -0.0084564 2.48979 8.24285e-05H6.34068C7.39007 -0.0084564 8.33029 0.647125 8.685 1.63479C9.03971 2.62245 8.73143 3.72642 7.91634 4.38741C8.73117 5.04863 9.03927 6.15252 8.68462 7.14014C8.32997 8.12775 7.39001 8.78348 6.34068 8.77529C5.85601 8.77588 5.38172 8.6348 4.97617 8.3694V10.1341C4.97026 11.5024 3.85809 12.6078 2.48979 12.6055ZM2.47592 8.77592C1.7294 8.78771 1.13265 9.40036 1.14047 10.1469C1.1483 10.8935 1.75778 11.4935 2.50438 11.4897C3.25099 11.4858 3.85421 10.8795 3.8543 10.1329V8.77592H2.47529H2.47592ZM6.34131 4.94582C5.5928 4.94965 4.98876 5.55886 4.99129 6.30737C4.99385 7.05589 5.60203 7.66097 6.35055 7.65971C7.09906 7.65844 7.7052 7.05129 7.7052 6.30277C7.70242 5.55155 7.09191 4.94443 6.34068 4.94582H6.34131ZM2.49042 4.9458C2.00563 4.94323 1.55628 5.19947 1.31164 5.61802C1.067 6.03657 1.06424 6.55384 1.30439 6.97497C1.54455 7.39611 1.99113 7.65714 2.47592 7.65973H3.8543V4.9458H2.49042ZM4.97617 1.11573V3.83028H6.34005C7.06958 3.83366 7.67149 3.26014 7.70331 2.53129V2.80546V2.47268C7.70018 1.72234 7.09103 1.11573 6.34068 1.11573H4.97617ZM2.48916 1.11573C2.00437 1.11573 1.5564 1.37436 1.314 1.7942C1.07161 2.21405 1.07161 2.73131 1.314 3.15116C1.5564 3.571 2.00437 3.82963 2.48916 3.82963H3.8543V1.11573H2.48916Z" fill="#516CF7"/>
</svg>
