<?xml version="1.0" encoding="UTF-8" standalone="no"?>
<svg
   width="32.269402"
   height="24.202"
   viewBox="0 0 32.269401 24.202"
   fill="none"
   version="1.1"
   id="svg12"
   sodipodi:docname="hindi.svg"
   inkscape:version="1.4.2 (f4327f4, 2025-05-13)"
   xmlns:inkscape="http://www.inkscape.org/namespaces/inkscape"
   xmlns:sodipodi="http://sodipodi.sourceforge.net/DTD/sodipodi-0.dtd"
   xmlns="http://www.w3.org/2000/svg"
   xmlns:svg="http://www.w3.org/2000/svg">
  <sodipodi:namedview
     id="namedview12"
     pagecolor="#ffffff"
     bordercolor="#000000"
     borderopacity="0.25"
     inkscape:showpageshadow="2"
     inkscape:pageopacity="0.0"
     inkscape:pagecheckerboard="0"
     inkscape:deskcolor="#d1d1d1"
     inkscape:zoom="15.666667"
     inkscape:cx="16.5"
     inkscape:cy="16.5"
     inkscape:window-width="1920"
     inkscape:window-height="1137"
     inkscape:window-x="1912"
     inkscape:window-y="-8"
     inkscape:window-maximized="1"
     inkscape:current-layer="g8" />
  <g
     filter="url(#filter0_d_454_1830)"
     id="g10"
     transform="translate(-16,-12)">
    <g
       clip-path="url(#clip0_454_1830)"
       id="g9">
      <rect
         x="16.134701"
         y="12.101"
         width="32.269402"
         height="24.202"
         fill="#e1e7fe"
         id="rect1" />
      <mask
         id="mask0_454_1830"
         maskUnits="userSpaceOnUse"
         x="16"
         y="12"
         width="33"
         height="25">
        <rect
           x="16"
           y="12"
           width="32.269402"
           height="24.202"
           fill="#ffffff"
           id="rect2" />
      </mask>
      <g
         mask="url(#mask0_454_1830)"
         id="g8">
        <path
           fill-rule="evenodd"
           clip-rule="evenodd"
           d="M 16,12 V 36.202 H 48.2694 V 12 Z"
           fill="#f7fcff"
           id="path2" />
        <mask
           id="mask1_454_1830"
           maskUnits="userSpaceOnUse"
           x="16"
           y="12"
           width="33"
           height="25">
          <path
             fill-rule="evenodd"
             clip-rule="evenodd"
             d="M 16,12 V 36.202 H 48.2694 V 12 Z"
             fill="#ffffff"
             id="path3" />
        </mask>
        <g
           mask="url(#mask1_454_1830)"
           id="g7">
          <path
             fill-rule="evenodd"
             clip-rule="evenodd"
             d="m 16,12 v 8.0673 H 48.2694 V 12 Z"
             fill="#ff8c1a"
             id="path4" />
          <path
             fill-rule="evenodd"
             clip-rule="evenodd"
             d="M 16,28.1347 V 36.202 H 48.2694 V 28.1347 Z"
             fill="#5eaa22"
             id="path5" />
          <path
             d="m 32.1342,20.0673 c 2.2276,0 4.0339,1.8057 4.0342,4.0332 0,2.2278 -1.8065,4.0342 -4.0342,4.0342 -2.2275,-2e-4 -4.0332,-1.8066 -4.0332,-4.0342 3e-4,-2.2273 1.8058,-4.0329 4.0332,-4.0332 z m 0,1.0088 c -1.6704,3e-4 -3.0242,1.354 -3.0244,3.0244 0,1.6707 1.3538,3.0252 3.0244,3.0254 1.6708,0 3.0254,-1.3546 3.0254,-3.0254 -3e-4,-1.6706 -1.3548,-3.0244 -3.0254,-3.0244 z"
             fill="#3d58db"
             id="path6" />
          <path
             fill-rule="evenodd"
             clip-rule="evenodd"
             d="m 32.1291,24.9689 -0.841,3.0997 0.4925,-3.1737 -2.029,2.4896 1.7408,-2.699 -2.8662,1.449 2.688,-1.7576 -3.2077,0.158 3.1705,-0.5123 -2.9947,-1.1604 3.1048,0.8215 -2.2639,-2.2781 2.5023,2.0134 -1.1416,-3.002 1.4671,2.857 0.1781,-3.2067 0.1782,3.2067 1.467,-2.857 -1.1416,3.002 2.5023,-2.0134 -2.2639,2.2781 3.1049,-0.8215 -2.9948,1.1604 3.1706,0.5123 -3.2078,-0.158 2.688,1.7576 -2.8662,-1.449 1.7408,2.699 -2.029,-2.4896 0.4925,3.1737 z"
             fill="#3d58db"
             id="path7" />
        </g>
      </g>
    </g>
  </g>
  <defs
     id="defs12">
    <filter
       id="filter0_d_454_1830"
       x="-5.72205e-06"
       y="3.3378601e-06"
       width="64.538696"
       height="56.471401"
       filterUnits="userSpaceOnUse"
       color-interpolation-filters="sRGB">
      <feFlood
         flood-opacity="0"
         result="BackgroundImageFix"
         id="feFlood10" />
      <feColorMatrix
         in="SourceAlpha"
         type="matrix"
         values="0 0 0 0 0 0 0 0 0 0 0 0 0 0 0 0 0 0 127 0"
         result="hardAlpha"
         id="feColorMatrix10" />
      <feOffset
         dy="4.03367"
         id="feOffset10" />
      <feGaussianBlur
         stdDeviation="8.06734"
         id="feGaussianBlur10" />
      <feColorMatrix
         type="matrix"
         values="0 0 0 0 0 0 0 0 0 0 0 0 0 0 0 0 0 0 0.06 0"
         id="feColorMatrix11" />
      <feBlend
         mode="normal"
         in2="BackgroundImageFix"
         result="effect1_dropShadow_454_1830"
         id="feBlend11" />
      <feBlend
         mode="normal"
         in="SourceGraphic"
         in2="effect1_dropShadow_454_1830"
         result="shape"
         id="feBlend12" />
    </filter>
    <clipPath
       id="clip0_454_1830">
      <rect
         x="16.134701"
         y="12.101"
         width="32.269402"
         height="24.202"
         rx="4.0336699"
         fill="#ffffff"
         id="rect12" />
    </clipPath>
  </defs>
</svg>
