<svg width="33" height="33" viewBox="0 0 33 33" fill="none" xmlns="http://www.w3.org/2000/svg">
<rect width="32.2694" height="32.2694" rx="16.1347" fill="url(#paint0_radial_454_1799)"/>
<rect width="32.2694" height="32.2694" rx="16.1347" fill="url(#paint1_radial_454_1799)" fill-opacity="0.2"/>
<path d="M12.7741 16.1351C12.7741 14.2786 14.2786 12.7733 16.1351 12.7733C17.9915 12.7733 19.4969 14.2786 19.4969 16.1351C19.4969 17.9915 17.9915 19.4969 16.1351 19.4969C14.2786 19.4969 12.7741 17.9915 12.7741 16.1351V16.1351ZM10.9568 16.1351C10.9568 18.9951 13.2751 21.3134 16.1351 21.3134C18.9951 21.3134 21.3134 18.9951 21.3134 16.1351C21.3134 13.2751 18.9951 10.9568 16.1351 10.9568C13.2751 10.9568 10.9569 13.2749 10.9569 16.1351H10.9568ZM20.3083 10.7515C20.3082 10.9908 20.3791 11.2248 20.512 11.4239C20.6449 11.6229 20.8338 11.7781 21.0549 11.8698C21.276 11.9615 21.5193 11.9855 21.7541 11.9389C21.9889 11.8923 22.2045 11.7772 22.3738 11.608C22.5431 11.4388 22.6585 11.2232 22.7053 10.9885C22.7521 10.7538 22.7282 10.5104 22.6367 10.2893C22.5452 10.0681 22.3902 9.87906 22.1912 9.746C21.9922 9.61295 21.7583 9.54188 21.519 9.54179H21.5185C21.1977 9.54194 20.89 9.66942 20.6631 9.89623C20.4362 10.123 20.3086 10.4306 20.3083 10.7515V10.7515ZM12.0609 24.3438C11.0777 24.299 10.5433 24.1352 10.1882 23.9969C9.71734 23.8136 9.3814 23.5953 9.0282 23.2425C8.675 22.8898 8.45636 22.5542 8.27387 22.0834C8.13543 21.7284 7.97166 21.1938 7.92696 20.2106C7.87807 19.1476 7.86831 18.8283 7.86831 16.1352C7.86831 13.4422 7.87888 13.1238 7.92696 12.0599C7.97174 11.0767 8.13672 10.5431 8.27387 10.1871C8.45717 9.71629 8.67548 9.38035 9.0282 9.02715C9.38092 8.67395 9.71653 8.45532 10.1882 8.27283C10.5431 8.13438 11.0777 7.97061 12.0609 7.92592C13.1239 7.87703 13.4432 7.86726 16.1351 7.86726C18.8269 7.86726 19.1466 7.87767 20.2105 7.92608C21.1937 7.97085 21.7272 8.13584 22.0832 8.27299C22.554 8.45548 22.89 8.6746 23.2432 9.02731C23.5964 9.38003 23.8142 9.71645 23.9975 10.1873C24.1359 10.5423 24.2997 11.0768 24.3444 12.06C24.3933 13.1239 24.4031 13.4423 24.4031 16.1354C24.4031 18.8285 24.3933 19.1469 24.3444 20.2108C24.2996 21.194 24.1351 21.7284 23.9975 22.0835C23.8142 22.5544 23.5959 22.8903 23.2432 23.2427C22.8905 23.5951 22.554 23.8137 22.0832 23.997C21.7282 24.1355 21.1937 24.2992 20.2105 24.3439C19.1475 24.3928 18.8282 24.4026 16.1351 24.4026C13.442 24.4026 13.1236 24.3928 12.0609 24.3439V24.3438ZM11.9774 6.11158C10.9039 6.16047 10.1703 6.3307 9.52961 6.57999C8.86652 6.83743 8.30445 7.1828 7.74318 7.74318C7.18192 8.30356 6.83743 8.86572 6.57999 9.52961C6.3307 10.1707 6.16047 10.9039 6.11158 11.9774C6.06188 13.0527 6.05051 13.3964 6.05051 16.1351C6.05051 18.8737 6.06188 19.2175 6.11158 20.2928C6.16047 21.3664 6.3307 22.0995 6.57999 22.7406C6.83743 23.4037 7.182 23.9669 7.74318 24.527C8.30437 25.0871 8.86572 25.432 9.52961 25.6902C10.1715 25.9395 10.9039 26.1097 11.9774 26.1586C13.0532 26.2075 13.3964 26.2197 16.1351 26.2197C18.8737 26.2197 19.2175 26.2083 20.2928 26.1586C21.3664 26.1097 22.0995 25.9395 22.7406 25.6902C23.4036 25.432 23.9657 25.0874 24.527 24.527C25.0883 23.9666 25.432 23.4037 25.6902 22.7406C25.9395 22.0995 26.1105 21.3663 26.1586 20.2928C26.2075 19.2167 26.2189 18.8737 26.2189 16.1351C26.2189 13.3964 26.2075 13.0527 26.1586 11.9774C26.1097 10.9038 25.9395 10.1703 25.6902 9.52961C25.432 8.86653 25.0874 8.30445 24.527 7.74318C23.9666 7.18192 23.4036 6.83743 22.7414 6.57999C22.0995 6.3307 21.3663 6.15966 20.2936 6.11158C19.2181 6.06245 18.8745 6.05051 16.1363 6.05051C13.3981 6.05051 13.0536 6.06188 11.9778 6.11158" fill="white"/>
<defs>
<radialGradient id="paint0_radial_454_1799" cx="0" cy="0" r="1" gradientUnits="userSpaceOnUse" gradientTransform="translate(2.08844 31.5624) scale(40.9701)">
<stop offset="0.09" stop-color="#FA8F21"/>
<stop offset="0.78" stop-color="#D82D7E"/>
</radialGradient>
<radialGradient id="paint1_radial_454_1799" cx="0" cy="0" r="1" gradientUnits="userSpaceOnUse" gradientTransform="translate(16.1347 31.2609) scale(25.2104)">
<stop offset="0.713542" stop-color="#8C3AAA" stop-opacity="0"/>
<stop offset="1" stop-color="#8C3AAA"/>
</radialGradient>
</defs>
</svg>
