<?xml version="1.0" encoding="UTF-8" standalone="no"?>
<svg
   width="32.269402"
   height="32.269402"
   viewBox="0 0 32.269402 32.269402"
   fill="none"
   version="1.1"
   id="svg3"
   sodipodi:docname="linkdin.svg"
   inkscape:version="1.4.2 (f4327f4, 2025-05-13)"
   xmlns:inkscape="http://www.inkscape.org/namespaces/inkscape"
   xmlns:sodipodi="http://sodipodi.sourceforge.net/DTD/sodipodi-0.dtd"
   xmlns="http://www.w3.org/2000/svg"
   xmlns:svg="http://www.w3.org/2000/svg">
  <sodipodi:namedview
     id="namedview3"
     pagecolor="#ffffff"
     bordercolor="#000000"
     borderopacity="0.25"
     inkscape:showpageshadow="2"
     inkscape:pageopacity="0.0"
     inkscape:pagecheckerboard="0"
     inkscape:deskcolor="#d1d1d1"
     inkscape:clip-to-page="false"
     inkscape:zoom="13.738462"
     inkscape:cx="16.340985"
     inkscape:cy="20.417133"
     inkscape:window-width="1920"
     inkscape:window-height="1137"
     inkscape:window-x="1912"
     inkscape:window-y="-8"
     inkscape:window-maximized="1"
     inkscape:current-layer="g1" />
  <g
     filter="url(#filter0_d_454_1819)"
     id="g1"
     transform="translate(-16.134701,-12.101)">
    <rect
       x="16.134701"
       y="12.101"
       width="32.269402"
       height="32.269402"
       rx="16.134701"
       fill="#0077b5"
       id="rect1" />
    <path
       d="M 33.1097,35.7988 H 29.7483 V 25.7146 h 3.3614 v 1.6807 c 0.7165,-0.9115 1.8031,-1.455 2.9622,-1.4815 2.0846,0.0116 3.7666,1.7079 3.7606,3.7925 v 6.0925 h -3.3614 v -5.6723 c -0.1344,-0.939 -0.9397,-1.6357 -1.8883,-1.6337 -0.4149,0.0131 -0.8065,0.1948 -1.0845,0.5031 -0.278,0.3083 -0.4183,0.7165 -0.3886,1.1306 z m -5.0421,0 H 24.7062 V 25.7146 h 3.3614 z M 26.3869,24.0339 c -0.9282,0 -1.6807,-0.7524 -1.6807,-1.6807 0,-0.9282 0.7525,-1.6807 1.6807,-1.6807 0.9282,0 1.6807,0.7525 1.6807,1.6807 0,0.4458 -0.1771,0.8733 -0.4923,1.1885 -0.3151,0.3152 -0.7426,0.4922 -1.1884,0.4922 z"
       fill="#ffffff"
       id="path1" />
  </g>
  <defs
     id="defs3">
    <filter
       id="filter0_d_454_1819"
       x="-5.72205e-06"
       y="3.3378601e-06"
       width="64.538696"
       height="64.538696"
       filterUnits="userSpaceOnUse"
       color-interpolation-filters="sRGB">
      <feFlood
         flood-opacity="0"
         result="BackgroundImageFix"
         id="feFlood1" />
      <feColorMatrix
         in="SourceAlpha"
         type="matrix"
         values="0 0 0 0 0 0 0 0 0 0 0 0 0 0 0 0 0 0 127 0"
         result="hardAlpha"
         id="feColorMatrix1" />
      <feOffset
         dy="4.03367"
         id="feOffset1" />
      <feGaussianBlur
         stdDeviation="8.06734"
         id="feGaussianBlur1" />
      <feColorMatrix
         type="matrix"
         values="0 0 0 0 0 0 0 0 0 0 0 0 0 0 0 0 0 0 0.06 0"
         id="feColorMatrix2" />
      <feBlend
         mode="normal"
         in2="BackgroundImageFix"
         result="effect1_dropShadow_454_1819"
         id="feBlend2" />
      <feBlend
         mode="normal"
         in="SourceGraphic"
         in2="effect1_dropShadow_454_1819"
         result="shape"
         id="feBlend3" />
    </filter>
  </defs>
</svg>
