<svg width="14" height="14" viewBox="0 0 14 14" fill="none" xmlns="http://www.w3.org/2000/svg">
<path d="M12.6031 13.4456C5.43358 13.4557 -0.00766197 7.94927 8.09879e-06 0.842457C8.09879e-06 0.378346 0.376245 0 0.840356 0H3.05833C3.47479 0 3.82857 0.305995 3.88972 0.717934C4.03628 1.70523 4.32373 2.6664 4.74333 3.57207L4.82969 3.75846C4.94976 4.01763 4.86837 4.32556 4.63593 4.49155C3.94905 4.98208 3.68654 5.96946 4.22165 6.73989C4.89316 7.70669 5.73962 8.55298 6.7062 9.22418C7.47659 9.75914 8.46382 9.49667 8.95433 8.80991C9.12044 8.57734 9.42854 8.49592 9.68786 8.61604L9.8734 8.70199C10.7791 9.12155 11.7404 9.40902 12.7278 9.55556C13.1397 9.61669 13.4456 9.97046 13.4456 10.3869V12.6052C13.4456 13.0693 13.0684 13.4456 12.6043 13.4455L12.6031 13.4456Z" fill="#79819A"/>
</svg>
