<?xml version="1.0" encoding="UTF-8" standalone="no"?>
<svg
   width="32.269402"
   height="32.269402"
   viewBox="0 0 32.269402 32.269402"
   fill="none"
   version="1.1"
   id="svg3"
   sodipodi:docname="twitter.svg"
   inkscape:version="1.4.2 (f4327f4, 2025-05-13)"
   xmlns:inkscape="http://www.inkscape.org/namespaces/inkscape"
   xmlns:sodipodi="http://sodipodi.sourceforge.net/DTD/sodipodi-0.dtd"
   xmlns="http://www.w3.org/2000/svg"
   xmlns:svg="http://www.w3.org/2000/svg">
  <sodipodi:namedview
     id="namedview3"
     pagecolor="#ffffff"
     bordercolor="#000000"
     borderopacity="0.25"
     inkscape:showpageshadow="2"
     inkscape:pageopacity="0.0"
     inkscape:pagecheckerboard="0"
     inkscape:deskcolor="#d1d1d1"
     inkscape:zoom="13.738462"
     inkscape:cx="16.340985"
     inkscape:cy="20.417133"
     inkscape:window-width="1920"
     inkscape:window-height="1137"
     inkscape:window-x="1912"
     inkscape:window-y="-8"
     inkscape:window-maximized="1"
     inkscape:current-layer="g1" />
  <g
     filter="url(#filter0_d_454_1812)"
     id="g1"
     transform="translate(-16.134701,-12.101)">
    <rect
       x="16.134701"
       y="12.101"
       width="32.269402"
       height="32.269402"
       rx="16.134701"
       fill="#00acee"
       id="rect1" />
    <path
       d="m 38.9879,23.7717 c 0.7534,-0.4503 1.317,-1.1595 1.5858,-1.995 -0.7079,0.42 -1.4824,0.7159 -2.29,0.8748 -1.1197,-1.1844 -2.8937,-1.4726 -4.3308,-0.7036 -1.4371,0.769 -2.1814,2.4049 -1.8172,3.9936 -2.8995,-0.1456 -5.6009,-1.5152 -7.432,-3.7681 -0.9556,1.6483 -0.4673,3.7553 1.116,4.8152 -0.5725,-0.0184 -1.1324,-0.1734 -1.6328,-0.4521 0,0.0151 0,0.0302 0,0.0453 3e-4,1.717 1.2104,3.196 2.8933,3.5362 -0.531,0.1445 -1.0881,0.1658 -1.6286,0.0622 0.4733,1.4683 1.8266,2.4742 3.369,2.5043 -1.2775,1.0026 -2.8551,1.5463 -4.4791,1.5437 -0.2878,4e-4 -0.5754,-0.0162 -0.8613,-0.0496 1.6491,1.0597 3.5684,1.6222 5.5286,1.6202 2.7272,0.0187 5.348,-1.0564 7.2764,-2.9849 1.9283,-1.9285 3.0032,-4.5495 2.9843,-7.2766 0,-0.1563 -0.0037,-0.3118 -0.011,-0.4664 0.7063,-0.5104 1.3159,-1.1427 1.8001,-1.8673 -0.658,0.2917 -1.356,0.4832 -2.0707,0.5681 z"
       fill="#ffffff"
       id="path1" />
  </g>
  <defs
     id="defs3">
    <filter
       id="filter0_d_454_1812"
       x="-5.72205e-06"
       y="3.3378601e-06"
       width="64.538696"
       height="64.538696"
       filterUnits="userSpaceOnUse"
       color-interpolation-filters="sRGB">
      <feFlood
         flood-opacity="0"
         result="BackgroundImageFix"
         id="feFlood1" />
      <feColorMatrix
         in="SourceAlpha"
         type="matrix"
         values="0 0 0 0 0 0 0 0 0 0 0 0 0 0 0 0 0 0 127 0"
         result="hardAlpha"
         id="feColorMatrix1" />
      <feOffset
         dy="4.03367"
         id="feOffset1" />
      <feGaussianBlur
         stdDeviation="8.06734"
         id="feGaussianBlur1" />
      <feColorMatrix
         type="matrix"
         values="0 0 0 0 0 0 0 0 0 0 0 0 0 0 0 0 0 0 0.06 0"
         id="feColorMatrix2" />
      <feBlend
         mode="normal"
         in2="BackgroundImageFix"
         result="effect1_dropShadow_454_1812"
         id="feBlend2" />
      <feBlend
         mode="normal"
         in="SourceGraphic"
         in2="effect1_dropShadow_454_1812"
         result="shape"
         id="feBlend3" />
    </filter>
  </defs>
</svg>
