<?xml version="1.0" encoding="UTF-8" standalone="no"?>
<svg
   width="32.269402"
   height="32.269402"
   viewBox="0 0 32.269402 32.269402"
   fill="none"
   version="1.1"
   id="svg1"
   sodipodi:docname="github.svg"
   inkscape:version="1.4.2 (f4327f4, 2025-05-13)"
   xmlns:inkscape="http://www.inkscape.org/namespaces/inkscape"
   xmlns:sodipodi="http://sodipodi.sourceforge.net/DTD/sodipodi-0.dtd"
   xmlns="http://www.w3.org/2000/svg"
   xmlns:svg="http://www.w3.org/2000/svg">
  <defs
     id="defs1" />
  <sodipodi:namedview
     id="namedview1"
     pagecolor="#ffffff"
     bordercolor="#000000"
     borderopacity="0.25"
     inkscape:showpageshadow="2"
     inkscape:pageopacity="0.0"
     inkscape:pagecheckerboard="0"
     inkscape:deskcolor="#d1d1d1"
     inkscape:zoom="27.060606"
     inkscape:cx="16.5"
     inkscape:cy="16.5"
     inkscape:window-width="1920"
     inkscape:window-height="1137"
     inkscape:window-x="1912"
     inkscape:window-y="-8"
     inkscape:window-maximized="1"
     inkscape:current-layer="svg1" />
  <rect
     width="32.269402"
     height="32.269402"
     rx="16.134701"
     fill="#ffffff"
     id="rect1"
     x="0"
     y="0" />
  <path
     d="m 16.7381,5.04208 c -5.9013,0 -10.68759,4.78537 -10.68759,10.68762 0,4.7221 3.06199,8.7281 7.30939,10.1416 0.5335,0.0988 0.7063,-0.2325 0.7063,-0.5139 v -1.9897 c -2.9729,0.6466 -3.5919,-1.2611 -3.5919,-1.2611 -0.48631,-1.2353 -1.18724,-1.564 -1.18724,-1.564 -0.9699,-0.6635 0.07392,-0.6492 0.07392,-0.6492 1.07322,0.0748 1.63792,1.1017 1.63792,1.1017 0.9529,1.6334 2.5,1.1614 3.11,0.8879 0.0953,-0.6902 0.3723,-1.1622 0.6787,-1.4285 -2.3735,-0.2717 -4.86908,-1.1881 -4.86908,-5.2824 0,-1.1676 0.41768,-2.1206 1.10078,-2.8687 -0.1104,-0.2699 -0.4764,-1.3573 0.1042,-2.82864 0,0 0.8978,-0.28679 2.94,1.09544 0.8523,-0.2369 1.7661,-0.3553 2.6746,-0.3598 0.9084,0.0045 1.8231,0.1229 2.6772,0.3598 2.0405,-1.38223 2.9364,-1.09544 2.9364,-1.09544 0.5816,1.47224 0.2156,2.55964 0.1051,2.82864 0.6858,0.7481 1.1,1.702 1.1,2.8687 0,4.1049 -2.5,5.0089 -4.8798,5.2735 0.383,0.3313 0.733,0.9814 0.733,1.9789 v 2.9329 c 0,0.2841 0.171,0.6181 0.7134,0.513 4.2438,-1.4152 7.3023,-5.4204 7.3023,-10.1407 0,-5.90225 -4.7854,-10.68762 -10.6876,-10.68762 z"
     fill="#24292e"
     id="path1"
     sodipodi:nodetypes="sscscccccccscccccccscsscss" />
</svg>
