<svg width="15" height="15" viewBox="0 0 15 15" fill="none" xmlns="http://www.w3.org/2000/svg">
<path d="M4.20181 14.333C2.50249 14.333 0.970481 13.3094 0.320072 11.7395C-0.330338 10.1695 0.0289165 8.3624 1.23034 7.16062L3.01355 5.3774L4.20181 6.56565L2.41943 8.34803C1.7825 8.98496 1.53374 9.91331 1.76688 10.7834C2.00001 11.6534 2.67961 12.333 3.54968 12.5662C4.41974 12.7993 5.34809 12.5506 5.98502 11.9136L7.7674 10.1312L8.95566 11.3203L7.17328 13.1027C6.38677 13.8931 5.31683 14.3361 4.20181 14.333ZM4.79593 10.7254L3.60768 9.53712L9.54978 3.59502L10.738 4.78327L4.79677 10.7245L4.79593 10.7254ZM11.333 8.943L10.1439 7.75474L11.9263 5.97237C12.5719 5.33734 12.8273 4.40484 12.5954 3.52946C12.3635 2.65408 11.6799 1.97033 10.8046 1.73823C9.92927 1.50612 8.99671 1.76131 8.36153 2.40677L6.57831 4.18915L5.39006 3.0009L7.17328 1.21768C8.81623 -0.410945 11.4666 -0.405141 13.1024 1.23066C14.7382 2.86646 14.744 5.51683 13.1154 7.15978L11.333 8.94216V8.943Z" fill="#79819A"/>
</svg>
