<svg width="11" height="11" viewBox="0 0 11 11" fill="none" xmlns="http://www.w3.org/2000/svg">
<path d="M3.15135 10.7498C1.87686 10.7498 0.727861 9.98203 0.240054 8.80459C-0.247753 7.62715 0.0216874 6.2718 0.922751 5.37046L2.26017 4.03305L3.15135 4.92424L1.81457 6.26102C1.33687 6.73872 1.15031 7.43498 1.32516 8.08753C1.50001 8.74008 2.00971 9.24978 2.66226 9.42463C3.31481 9.59948 4.01107 9.41292 4.48877 8.93522L5.82555 7.59844L6.71674 8.49026L5.37996 9.82704C4.79008 10.4198 3.98762 10.7521 3.15135 10.7498ZM3.59695 8.04403L2.70576 7.15284L7.16234 2.69627L8.05352 3.58746L3.59758 8.0434L3.59695 8.04403ZM8.49975 6.70725L7.60793 5.81606L8.94471 4.47928C9.42892 4.00301 9.62048 3.30363 9.44655 2.64709C9.27263 1.99056 8.75994 1.47775 8.10345 1.30367C7.44695 1.12959 6.74753 1.32099 6.27115 1.80508L4.93373 3.14186L4.04254 2.25067L5.37996 0.913258C6.61217 -0.308209 8.59994 -0.303856 9.8268 0.922996C11.0536 2.14985 11.058 4.13762 9.83653 5.36983L8.49975 6.70662V6.70725Z" fill="#516CF7"/>
</svg>
