<svg width="12" height="16" viewBox="0 0 12 16" fill="none" xmlns="http://www.w3.org/2000/svg">
<path d="M5.88244 15.1294C4.82102 14.224 3.83719 13.2315 2.94122 12.1621C1.59666 10.5562 7.42584e-07 8.16458 7.42584e-07 5.88556C-0.00119101 3.50531 1.43216 1.35893 3.6312 0.447998C5.83024 -0.462934 8.36152 0.0411374 10.0438 1.72499C11.1501 2.82636 11.7698 4.32452 11.7649 5.88556C11.7649 8.16458 10.1682 10.5562 8.82366 12.1621C7.92769 13.2315 6.94385 14.224 5.88244 15.1294ZM5.88244 3.36451C4.98176 3.36451 4.14949 3.84502 3.69915 4.62503C3.24881 5.40505 3.24881 6.36606 3.69915 7.14608C4.14949 7.92609 4.98176 8.4066 5.88244 8.4066C7.27477 8.4066 8.40348 7.27789 8.40348 5.88556C8.40348 4.49322 7.27477 3.36451 5.88244 3.36451Z" fill="#79819A"/>
</svg>
