<?xml version="1.0" encoding="UTF-8" standalone="no"?>
<svg
   width="28.571779"
   height="28.571779"
   viewBox="0 0 28.571779 28.571779"
   fill="none"
   version="1.1"
   id="svg2"
   sodipodi:docname="travelling.svg"
   inkscape:version="1.4.2 (f4327f4, 2025-05-13)"
   xmlns:inkscape="http://www.inkscape.org/namespaces/inkscape"
   xmlns:sodipodi="http://sodipodi.sourceforge.net/DTD/sodipodi-0.dtd"
   xmlns="http://www.w3.org/2000/svg"
   xmlns:svg="http://www.w3.org/2000/svg">
  <defs
     id="defs2" />
  <sodipodi:namedview
     id="namedview2"
     pagecolor="#ffffff"
     bordercolor="#000000"
     borderopacity="0.25"
     inkscape:showpageshadow="2"
     inkscape:pageopacity="0.0"
     inkscape:pagecheckerboard="0"
     inkscape:deskcolor="#d1d1d1"
     inkscape:zoom="25.514286"
     inkscape:cx="14.638858"
     inkscape:cy="14.638858"
     inkscape:window-width="1920"
     inkscape:window-height="1137"
     inkscape:window-x="1912"
     inkscape:window-y="-8"
     inkscape:window-maximized="1"
     inkscape:current-layer="svg2" />
  <circle
     cx="14.28589"
     cy="14.28589"
     r="12.8573"
     stroke="#000000"
     stroke-width="2.85718"
     stroke-linecap="round"
     stroke-linejoin="round"
     id="circle1" />
  <path
     d="m 15.714489,1.4972191 c -0.4972,0.41842 -0.9451,0.91222 -1.3262,1.47795 -2.204,3.27184 -1.3383,7.7109199 1.9335,9.9149199 0.2583,0.174 0.5238,0.3288 0.7949,0.4649 2.8836,1.4468 3.9845,-0.5032 5.5457,0.5485 1.0127,0.6822 1.2806,2.0561 0.5984,3.0688 -0.7149,1.0613 -1.8319,1.5993 -1.6387,3.3376 0.1091,0.9811 0.7119,1.8266 1.4929,2.5475"
     stroke="#000000"
     stroke-width="2.85718"
     stroke-linecap="round"
     stroke-linejoin="round"
     id="path1" />
  <path
     d="m 2.8571591,10.400189 c 1.54557,0.3761 2.97576,1.2683 4.00864,2.637 1.10099,1.459 1.55739,3.2036 1.41689,4.8922 -0.0743,0.8943 0.5089,1.7969 1.2594,2.2889 0.3626,0.2378 0.6911999,0.5409 0.9673999,0.9069 1.2229,1.6205 0.9789,3.8909 -0.5094,5.219"
     stroke="#000000"
     stroke-width="2.85718"
     stroke-linecap="round"
     stroke-linejoin="round"
     id="path2" />
</svg>
